<?xml version="1.0" encoding="UTF-8"?>
<svg xmlns="http://www.w3.org/2000/svg" xmlns:xlink="http://www.w3.org/1999/xlink" width="633" height="388" viewBox="0 0 633 388">
<defs>
<g>
<g id="glyph-0-0">
<path d="M 0.367188 -3.105469 C 0.367188 -3.851562 0.441406 -4.449219 0.59375 -4.90625 C 0.75 -5.359375 0.976562 -5.710938 1.277344 -5.957031 C 1.582031 -6.203125 1.960938 -6.324219 2.417969 -6.324219 C 2.757812 -6.324219 3.054688 -6.257812 3.308594 -6.121094 C 3.5625 -5.984375 3.773438 -5.789062 3.941406 -5.53125 C 4.105469 -5.277344 4.238281 -4.964844 4.332031 -4.59375 C 4.425781 -4.226562 4.472656 -3.730469 4.472656 -3.105469 C 4.472656 -2.367188 4.398438 -1.769531 4.246094 -1.316406 C 4.09375 -0.863281 3.867188 -0.511719 3.5625 -0.265625 C 3.261719 -0.015625 2.878906 0.109375 2.417969 0.109375 C 1.8125 0.109375 1.335938 -0.109375 0.988281 -0.546875 C 0.574219 -1.070312 0.367188 -1.921875 0.367188 -3.105469 M 1.160156 -3.105469 C 1.160156 -2.074219 1.28125 -1.382812 1.523438 -1.042969 C 1.765625 -0.699219 2.0625 -0.527344 2.417969 -0.527344 C 2.773438 -0.527344 3.074219 -0.699219 3.316406 -1.042969 C 3.558594 -1.386719 3.679688 -2.074219 3.679688 -3.105469 C 3.679688 -4.144531 3.558594 -4.832031 3.316406 -5.171875 C 3.074219 -5.515625 2.773438 -5.683594 2.410156 -5.683594 C 2.054688 -5.683594 1.773438 -5.535156 1.558594 -5.234375 C 1.292969 -4.851562 1.160156 -4.140625 1.160156 -3.105469 Z M 1.160156 -3.105469 "/>
</g>
<g id="glyph-0-1">
<path d="M 4.429688 -0.742188 L 4.429688 0 L 0.265625 0 C 0.261719 -0.1875 0.289062 -0.367188 0.355469 -0.539062 C 0.460938 -0.820312 0.632812 -1.101562 0.867188 -1.375 C 1.097656 -1.648438 1.4375 -1.96875 1.878906 -2.328125 C 2.5625 -2.890625 3.023438 -3.335938 3.265625 -3.664062 C 3.507812 -3.992188 3.625 -4.300781 3.625 -4.59375 C 3.625 -4.898438 3.515625 -5.160156 3.296875 -5.367188 C 3.078125 -5.578125 2.792969 -5.683594 2.441406 -5.683594 C 2.066406 -5.683594 1.769531 -5.574219 1.546875 -5.351562 C 1.324219 -5.125 1.210938 -4.816406 1.207031 -4.421875 L 0.414062 -4.503906 C 0.46875 -5.097656 0.671875 -5.546875 1.027344 -5.859375 C 1.382812 -6.167969 1.859375 -6.324219 2.457031 -6.324219 C 3.0625 -6.324219 3.539062 -6.15625 3.894531 -5.824219 C 4.246094 -5.488281 4.421875 -5.070312 4.421875 -4.578125 C 4.421875 -4.324219 4.371094 -4.078125 4.265625 -3.832031 C 4.164062 -3.589844 3.992188 -3.332031 3.753906 -3.0625 C 3.515625 -2.792969 3.117188 -2.425781 2.5625 -1.957031 C 2.097656 -1.566406 1.800781 -1.300781 1.667969 -1.164062 C 1.535156 -1.023438 1.425781 -0.882812 1.339844 -0.742188 Z M 4.429688 -0.742188 "/>
</g>
<g id="glyph-0-2">
<path d="M 0.367188 -1.648438 L 1.175781 -1.71875 C 1.238281 -1.324219 1.378906 -1.027344 1.597656 -0.828125 C 1.816406 -0.628906 2.078125 -0.527344 2.390625 -0.527344 C 2.761719 -0.527344 3.078125 -0.667969 3.335938 -0.949219 C 3.59375 -1.230469 3.722656 -1.601562 3.722656 -2.066406 C 3.722656 -2.507812 3.597656 -2.855469 3.347656 -3.109375 C 3.101562 -3.367188 2.777344 -3.492188 2.375 -3.492188 C 2.125 -3.492188 1.902344 -3.4375 1.703125 -3.324219 C 1.5 -3.210938 1.34375 -3.0625 1.230469 -2.882812 L 0.503906 -2.976562 L 1.113281 -6.214844 L 4.246094 -6.214844 L 4.246094 -5.472656 L 1.730469 -5.472656 L 1.390625 -3.78125 C 1.769531 -4.042969 2.167969 -4.175781 2.582031 -4.175781 C 3.132812 -4.175781 3.597656 -3.984375 3.976562 -3.605469 C 4.351562 -3.222656 4.542969 -2.734375 4.542969 -2.136719 C 4.542969 -1.566406 4.375 -1.074219 4.042969 -0.65625 C 3.640625 -0.148438 3.089844 0.109375 2.390625 0.109375 C 1.816406 0.109375 1.347656 -0.0546875 0.984375 -0.375 C 0.625 -0.695312 0.417969 -1.121094 0.367188 -1.648438 Z M 0.367188 -1.648438 "/>
</g>
<g id="glyph-0-3">
<path d="M 0.417969 -5.472656 L 0.417969 -6.21875 L 4.496094 -6.21875 L 4.496094 -5.617188 C 4.09375 -5.1875 3.695312 -4.621094 3.300781 -3.914062 C 2.910156 -3.207031 2.605469 -2.480469 2.390625 -1.730469 C 2.234375 -1.203125 2.136719 -0.628906 2.09375 0 L 1.296875 0 C 1.304688 -0.496094 1.402344 -1.09375 1.589844 -1.796875 C 1.777344 -2.496094 2.042969 -3.175781 2.390625 -3.828125 C 2.738281 -4.476562 3.109375 -5.027344 3.503906 -5.472656 Z M 0.417969 -5.472656 "/>
</g>
<g id="glyph-0-4">
<path d="M 3.277344 0 L 2.503906 0 L 2.503906 -4.929688 C 2.320312 -4.75 2.074219 -4.574219 1.773438 -4.394531 C 1.46875 -4.21875 1.199219 -4.085938 0.957031 -3.996094 L 0.957031 -4.742188 C 1.390625 -4.945312 1.769531 -5.195312 2.09375 -5.484375 C 2.417969 -5.773438 2.644531 -6.054688 2.78125 -6.324219 L 3.277344 -6.324219 Z M 3.277344 0 "/>
</g>
<g id="glyph-0-5">
<path d="M 0.371094 -1.664062 L 1.144531 -1.765625 C 1.230469 -1.328125 1.382812 -1.011719 1.597656 -0.820312 C 1.808594 -0.625 2.070312 -0.527344 2.375 -0.527344 C 2.738281 -0.527344 3.046875 -0.65625 3.296875 -0.90625 C 3.546875 -1.160156 3.671875 -1.472656 3.675781 -1.84375 C 3.671875 -2.199219 3.558594 -2.492188 3.324219 -2.722656 C 3.09375 -2.953125 2.796875 -3.066406 2.441406 -3.066406 C 2.292969 -3.066406 2.113281 -3.039062 1.894531 -2.980469 L 1.980469 -3.660156 C 2.03125 -3.65625 2.074219 -3.652344 2.105469 -3.652344 C 2.433594 -3.652344 2.730469 -3.738281 2.996094 -3.910156 C 3.257812 -4.082031 3.390625 -4.347656 3.390625 -4.703125 C 3.390625 -4.988281 3.292969 -5.222656 3.101562 -5.410156 C 2.910156 -5.597656 2.664062 -5.6875 2.359375 -5.6875 C 2.058594 -5.6875 1.808594 -5.59375 1.605469 -5.40625 C 1.40625 -5.214844 1.277344 -4.933594 1.21875 -4.554688 L 0.445312 -4.691406 C 0.542969 -5.210938 0.757812 -5.613281 1.089844 -5.898438 C 1.425781 -6.183594 1.84375 -6.324219 2.34375 -6.324219 C 2.6875 -6.324219 3.003906 -6.25 3.292969 -6.105469 C 3.582031 -5.957031 3.800781 -5.753906 3.957031 -5.5 C 4.109375 -5.246094 4.183594 -4.972656 4.183594 -4.6875 C 4.183594 -4.414062 4.113281 -4.167969 3.964844 -3.945312 C 3.820312 -3.722656 3.605469 -3.542969 3.316406 -3.410156 C 3.691406 -3.324219 3.980469 -3.148438 4.183594 -2.875 C 4.390625 -2.605469 4.496094 -2.265625 4.496094 -1.859375 C 4.496094 -1.3125 4.292969 -0.84375 3.894531 -0.460938 C 3.492188 -0.078125 2.984375 0.113281 2.371094 0.113281 C 1.820312 0.113281 1.359375 -0.0546875 0.996094 -0.382812 C 0.628906 -0.710938 0.421875 -1.140625 0.371094 -1.664062 Z M 0.371094 -1.664062 "/>
</g>
<g id="glyph-0-6">
<path d="M 2.84375 0 L 2.84375 -1.507812 L 0.113281 -1.507812 L 0.113281 -2.21875 L 2.988281 -6.300781 L 3.617188 -6.300781 L 3.617188 -2.21875 L 4.46875 -2.21875 L 4.46875 -1.507812 L 3.617188 -1.507812 L 3.617188 0 L 2.84375 0 M 2.84375 -2.21875 L 2.84375 -5.058594 L 0.871094 -2.21875 Z M 2.84375 -2.21875 "/>
</g>
<g id="glyph-0-7">
<path d="M 4.378906 -4.757812 L 3.609375 -4.695312 C 3.539062 -5 3.441406 -5.21875 3.316406 -5.359375 C 3.109375 -5.578125 2.851562 -5.6875 2.542969 -5.6875 C 2.296875 -5.6875 2.082031 -5.621094 1.894531 -5.484375 C 1.652344 -5.304688 1.460938 -5.046875 1.320312 -4.703125 C 1.179688 -4.363281 1.105469 -3.878906 1.101562 -3.25 C 1.285156 -3.53125 1.515625 -3.742188 1.785156 -3.878906 C 2.050781 -4.015625 2.335938 -4.085938 2.628906 -4.085938 C 3.144531 -4.085938 3.585938 -3.898438 3.945312 -3.515625 C 4.308594 -3.136719 4.492188 -2.648438 4.492188 -2.046875 C 4.492188 -1.648438 4.40625 -1.28125 4.234375 -0.941406 C 4.0625 -0.605469 3.828125 -0.34375 3.53125 -0.164062 C 3.234375 0.015625 2.894531 0.109375 2.519531 0.109375 C 1.875 0.109375 1.347656 -0.128906 0.941406 -0.605469 C 0.535156 -1.078125 0.332031 -1.859375 0.332031 -2.949219 C 0.332031 -4.164062 0.554688 -5.050781 1.003906 -5.601562 C 1.398438 -6.085938 1.925781 -6.324219 2.589844 -6.324219 C 3.085938 -6.324219 3.492188 -6.1875 3.808594 -5.910156 C 4.125 -5.628906 4.316406 -5.246094 4.378906 -4.757812 M 1.21875 -2.039062 C 1.21875 -1.773438 1.277344 -1.519531 1.390625 -1.277344 C 1.503906 -1.03125 1.660156 -0.847656 1.863281 -0.71875 C 2.066406 -0.59375 2.28125 -0.527344 2.503906 -0.527344 C 2.832031 -0.527344 3.113281 -0.660156 3.347656 -0.925781 C 3.582031 -1.1875 3.699219 -1.546875 3.699219 -2 C 3.699219 -2.433594 3.582031 -2.777344 3.351562 -3.027344 C 3.121094 -3.277344 2.828125 -3.402344 2.476562 -3.402344 C 2.125 -3.402344 1.828125 -3.277344 1.585938 -3.027344 C 1.34375 -2.777344 1.21875 -2.449219 1.21875 -2.039062 Z M 1.21875 -2.039062 "/>
</g>
<g id="glyph-1-0">
<path d="M 0.835938 0 L 0.835938 -7.875 L 1.90625 -7.875 L 6.042969 -1.691406 L 6.042969 -7.875 L 7.042969 -7.875 L 7.042969 0 L 5.972656 0 L 1.835938 -6.1875 L 1.835938 0 Z M 0.835938 0 "/>
</g>
<g id="glyph-1-1">
<path d="M 0.367188 -2.851562 C 0.367188 -3.910156 0.660156 -4.691406 1.246094 -5.199219 C 1.738281 -5.621094 2.335938 -5.832031 3.039062 -5.832031 C 3.824219 -5.832031 4.464844 -5.574219 4.960938 -5.0625 C 5.460938 -4.546875 5.710938 -3.839844 5.710938 -2.933594 C 5.710938 -2.199219 5.597656 -1.621094 5.378906 -1.199219 C 5.160156 -0.78125 4.839844 -0.453125 4.417969 -0.21875 C 3.996094 0.0117188 3.539062 0.128906 3.039062 0.128906 C 2.242188 0.128906 1.597656 -0.128906 1.105469 -0.640625 C 0.613281 -1.152344 0.367188 -1.890625 0.367188 -2.851562 M 1.359375 -2.851562 C 1.359375 -2.121094 1.519531 -1.574219 1.835938 -1.210938 C 2.15625 -0.847656 2.554688 -0.664062 3.039062 -0.664062 C 3.519531 -0.664062 3.917969 -0.847656 4.238281 -1.214844 C 4.554688 -1.578125 4.714844 -2.136719 4.714844 -2.882812 C 4.714844 -3.589844 4.554688 -4.125 4.234375 -4.488281 C 3.914062 -4.851562 3.515625 -5.03125 3.039062 -5.03125 C 2.554688 -5.03125 2.15625 -4.851562 1.835938 -4.492188 C 1.519531 -4.128906 1.359375 -3.582031 1.359375 -2.851562 Z M 1.359375 -2.851562 "/>
</g>
<g id="glyph-1-2">
<path d="M 0.726562 0 L 0.726562 -5.703125 L 1.589844 -5.703125 L 1.589844 -4.902344 C 1.769531 -5.183594 2.007812 -5.40625 2.304688 -5.578125 C 2.601562 -5.746094 2.941406 -5.832031 3.320312 -5.832031 C 3.742188 -5.832031 4.089844 -5.746094 4.359375 -5.570312 C 4.628906 -5.394531 4.820312 -5.148438 4.929688 -4.835938 C 5.382812 -5.5 5.96875 -5.832031 6.691406 -5.832031 C 7.257812 -5.832031 7.691406 -5.675781 7.996094 -5.363281 C 8.300781 -5.050781 8.453125 -4.566406 8.453125 -3.914062 L 8.453125 0 L 7.492188 0 L 7.492188 -3.59375 C 7.492188 -3.980469 7.460938 -4.257812 7.398438 -4.429688 C 7.335938 -4.597656 7.222656 -4.734375 7.058594 -4.839844 C 6.894531 -4.941406 6.699219 -4.996094 6.476562 -4.996094 C 6.078125 -4.996094 5.742188 -4.863281 5.476562 -4.59375 C 5.214844 -4.328125 5.082031 -3.902344 5.082031 -3.3125 L 5.082031 0 L 4.113281 0 L 4.113281 -3.707031 C 4.113281 -4.136719 4.035156 -4.457031 3.878906 -4.671875 C 3.71875 -4.886719 3.460938 -4.996094 3.105469 -4.996094 C 2.832031 -4.996094 2.582031 -4.921875 2.351562 -4.78125 C 2.117188 -4.636719 1.953125 -4.425781 1.847656 -4.152344 C 1.742188 -3.875 1.691406 -3.480469 1.691406 -2.960938 L 1.691406 0 Z M 0.726562 0 "/>
</g>
<g id="glyph-1-3">
<path d="M 1.617188 0 L 0.71875 0 L 0.71875 -7.875 L 1.6875 -7.875 L 1.6875 -5.066406 C 2.09375 -5.578125 2.617188 -5.832031 3.25 -5.832031 C 3.601562 -5.832031 3.933594 -5.761719 4.246094 -5.621094 C 4.558594 -5.480469 4.816406 -5.28125 5.019531 -5.023438 C 5.222656 -4.769531 5.378906 -4.460938 5.496094 -4.097656 C 5.609375 -3.738281 5.667969 -3.351562 5.667969 -2.9375 C 5.667969 -1.960938 5.425781 -1.203125 4.941406 -0.671875 C 4.457031 -0.136719 3.878906 0.128906 3.203125 0.128906 C 2.527344 0.128906 2 -0.152344 1.617188 -0.714844 L 1.617188 0 M 1.605469 -2.894531 C 1.605469 -2.210938 1.699219 -1.71875 1.886719 -1.414062 C 2.191406 -0.914062 2.601562 -0.664062 3.121094 -0.664062 C 3.542969 -0.664062 3.910156 -0.847656 4.214844 -1.214844 C 4.523438 -1.582031 4.679688 -2.128906 4.679688 -2.859375 C 4.679688 -3.601562 4.53125 -4.152344 4.234375 -4.507812 C 3.941406 -4.859375 3.582031 -5.039062 3.164062 -5.039062 C 2.742188 -5.039062 2.375 -4.855469 2.066406 -4.488281 C 1.761719 -4.121094 1.605469 -3.589844 1.605469 -2.894531 Z M 1.605469 -2.894531 "/>
</g>
<g id="glyph-1-4">
<path d="M 0.714844 0 L 0.714844 -5.703125 L 1.585938 -5.703125 L 1.585938 -4.839844 C 1.804688 -5.242188 2.011719 -5.511719 2.199219 -5.640625 C 2.386719 -5.769531 2.59375 -5.832031 2.820312 -5.832031 C 3.144531 -5.832031 3.476562 -5.730469 3.8125 -5.523438 L 3.480469 -4.625 C 3.242188 -4.765625 3.007812 -4.832031 2.773438 -4.835938 C 2.558594 -4.832031 2.371094 -4.769531 2.203125 -4.644531 C 2.035156 -4.515625 1.914062 -4.339844 1.84375 -4.113281 C 1.734375 -3.769531 1.679688 -3.394531 1.679688 -2.984375 L 1.679688 0 Z M 0.714844 0 "/>
</g>
<g id="glyph-1-5">
<path d="M 4.628906 -1.835938 L 5.628906 -1.714844 C 5.472656 -1.128906 5.179688 -0.675781 4.753906 -0.355469 C 4.328125 -0.03125 3.78125 0.128906 3.121094 0.128906 C 2.285156 0.128906 1.625 -0.128906 1.136719 -0.640625 C 0.648438 -1.15625 0.402344 -1.875 0.402344 -2.804688 C 0.402344 -3.761719 0.648438 -4.507812 1.144531 -5.039062 C 1.636719 -5.566406 2.277344 -5.832031 3.066406 -5.832031 C 3.828125 -5.832031 4.453125 -5.574219 4.9375 -5.054688 C 5.417969 -4.535156 5.660156 -3.804688 5.660156 -2.863281 C 5.660156 -2.804688 5.660156 -2.71875 5.65625 -2.605469 L 1.402344 -2.605469 C 1.4375 -1.976562 1.613281 -1.5 1.933594 -1.164062 C 2.253906 -0.832031 2.648438 -0.664062 3.125 -0.664062 C 3.480469 -0.664062 3.78125 -0.757812 4.035156 -0.945312 C 4.285156 -1.132812 4.484375 -1.429688 4.628906 -1.835938 M 1.457031 -3.398438 L 4.640625 -3.398438 C 4.597656 -3.878906 4.476562 -4.238281 4.273438 -4.480469 C 3.96875 -4.851562 3.566406 -5.039062 3.078125 -5.039062 C 2.632812 -5.039062 2.261719 -4.890625 1.957031 -4.59375 C 1.65625 -4.296875 1.488281 -3.898438 1.457031 -3.398438 Z M 1.457031 -3.398438 "/>
</g>
<g id="glyph-1-6">
</g>
<g id="glyph-1-7">
<path d="M 4.425781 0 L 4.425781 -0.71875 C 4.0625 -0.152344 3.53125 0.128906 2.832031 0.128906 C 2.375 0.128906 1.957031 0.00390625 1.578125 -0.246094 C 1.195312 -0.496094 0.898438 -0.847656 0.691406 -1.296875 C 0.480469 -1.746094 0.375 -2.261719 0.375 -2.847656 C 0.375 -3.414062 0.472656 -3.933594 0.660156 -4.394531 C 0.851562 -4.859375 1.136719 -5.214844 1.515625 -5.460938 C 1.894531 -5.710938 2.320312 -5.832031 2.789062 -5.832031 C 3.132812 -5.832031 3.4375 -5.761719 3.707031 -5.617188 C 3.976562 -5.46875 4.191406 -5.28125 4.359375 -5.046875 L 4.359375 -7.875 L 5.324219 -7.875 L 5.324219 0 L 4.425781 0 M 1.371094 -2.847656 C 1.371094 -2.117188 1.523438 -1.570312 1.832031 -1.207031 C 2.140625 -0.847656 2.503906 -0.664062 2.921875 -0.664062 C 3.34375 -0.664062 3.703125 -0.839844 4 -1.183594 C 4.292969 -1.53125 4.441406 -2.058594 4.441406 -2.765625 C 4.441406 -3.546875 4.292969 -4.121094 3.992188 -4.484375 C 3.691406 -4.851562 3.320312 -5.03125 2.878906 -5.03125 C 2.449219 -5.03125 2.089844 -4.855469 1.800781 -4.507812 C 1.515625 -4.15625 1.371094 -3.601562 1.371094 -2.847656 Z M 1.371094 -2.847656 "/>
</g>
<g id="glyph-1-8">
<path d="M 0.339844 -1.703125 L 1.292969 -1.851562 C 1.347656 -1.46875 1.496094 -1.175781 1.742188 -0.972656 C 1.988281 -0.769531 2.332031 -0.664062 2.773438 -0.664062 C 3.214844 -0.664062 3.546875 -0.757812 3.757812 -0.9375 C 3.976562 -1.117188 4.082031 -1.332031 4.082031 -1.574219 C 4.082031 -1.792969 3.988281 -1.964844 3.796875 -2.089844 C 3.664062 -2.175781 3.335938 -2.285156 2.808594 -2.417969 C 2.101562 -2.597656 1.609375 -2.75 1.335938 -2.882812 C 1.0625 -3.011719 0.851562 -3.191406 0.710938 -3.425781 C 0.570312 -3.65625 0.5 -3.910156 0.5 -4.1875 C 0.5 -4.445312 0.558594 -4.679688 0.675781 -4.894531 C 0.789062 -5.113281 0.949219 -5.292969 1.148438 -5.4375 C 1.300781 -5.546875 1.503906 -5.640625 1.765625 -5.71875 C 2.023438 -5.792969 2.300781 -5.832031 2.601562 -5.832031 C 3.046875 -5.832031 3.441406 -5.769531 3.777344 -5.640625 C 4.117188 -5.511719 4.367188 -5.335938 4.527344 -5.117188 C 4.6875 -4.894531 4.800781 -4.601562 4.859375 -4.234375 L 3.914062 -4.101562 C 3.871094 -4.398438 3.75 -4.625 3.542969 -4.789062 C 3.335938 -4.957031 3.046875 -5.039062 2.667969 -5.039062 C 2.226562 -5.039062 1.910156 -4.964844 1.71875 -4.816406 C 1.527344 -4.671875 1.433594 -4.5 1.433594 -4.300781 C 1.433594 -4.175781 1.472656 -4.0625 1.550781 -3.964844 C 1.632812 -3.859375 1.753906 -3.773438 1.921875 -3.707031 C 2.019531 -3.671875 2.304688 -3.585938 2.777344 -3.460938 C 3.460938 -3.277344 3.9375 -3.125 4.207031 -3.011719 C 4.480469 -2.894531 4.691406 -2.726562 4.84375 -2.503906 C 5 -2.28125 5.074219 -2.003906 5.074219 -1.675781 C 5.074219 -1.351562 4.980469 -1.050781 4.792969 -0.765625 C 4.605469 -0.480469 4.335938 -0.261719 3.980469 -0.105469 C 3.625 0.0507812 3.222656 0.128906 2.777344 0.128906 C 2.035156 0.128906 1.472656 -0.0234375 1.082031 -0.332031 C 0.695312 -0.640625 0.445312 -1.097656 0.339844 -1.703125 Z M 0.339844 -1.703125 "/>
</g>
<g id="glyph-1-9">
<path d="M 0.730469 -6.761719 L 0.730469 -7.875 L 1.695312 -7.875 L 1.695312 -6.761719 L 0.730469 -6.761719 M 0.730469 0 L 0.730469 -5.703125 L 1.695312 -5.703125 L 1.695312 0 Z M 0.730469 0 "/>
</g>
<g id="glyph-1-10">
<path d="M 0.726562 0 L 0.726562 -5.703125 L 1.59375 -5.703125 L 1.59375 -4.894531 C 2.015625 -5.519531 2.621094 -5.832031 3.410156 -5.832031 C 3.753906 -5.832031 4.070312 -5.769531 4.359375 -5.648438 C 4.648438 -5.523438 4.863281 -5.363281 5.007812 -5.160156 C 5.148438 -4.960938 5.25 -4.722656 5.304688 -4.445312 C 5.34375 -4.269531 5.359375 -3.953125 5.359375 -3.507812 L 5.359375 0 L 4.394531 0 L 4.394531 -3.46875 C 4.394531 -3.863281 4.355469 -4.15625 4.28125 -4.351562 C 4.207031 -4.546875 4.070312 -4.703125 3.878906 -4.820312 C 3.6875 -4.9375 3.464844 -4.996094 3.207031 -4.996094 C 2.792969 -4.996094 2.4375 -4.863281 2.140625 -4.601562 C 1.839844 -4.339844 1.691406 -3.84375 1.691406 -3.117188 L 1.691406 0 Z M 0.726562 0 "/>
</g>
<g id="glyph-1-11">
<path d="M 2.835938 -0.863281 L 2.976562 -0.0117188 C 2.703125 0.046875 2.460938 0.0742188 2.246094 0.0742188 C 1.894531 0.0742188 1.621094 0.0195312 1.429688 -0.0898438 C 1.234375 -0.203125 1.097656 -0.347656 1.019531 -0.527344 C 0.941406 -0.710938 0.902344 -1.089844 0.902344 -1.671875 L 0.902344 -4.953125 L 0.195312 -4.953125 L 0.195312 -5.703125 L 0.902344 -5.703125 L 0.902344 -7.117188 L 1.863281 -7.695312 L 1.863281 -5.703125 L 2.835938 -5.703125 L 2.835938 -4.953125 L 1.863281 -4.953125 L 1.863281 -1.617188 C 1.863281 -1.339844 1.878906 -1.164062 1.914062 -1.085938 C 1.949219 -1.007812 2.003906 -0.945312 2.082031 -0.898438 C 2.160156 -0.851562 2.269531 -0.828125 2.410156 -0.828125 C 2.519531 -0.828125 2.660156 -0.839844 2.835938 -0.863281 Z M 2.835938 -0.863281 "/>
</g>
<g id="glyph-1-12">
<path d="M 6.015625 -7.875 L 7.058594 -7.875 L 7.058594 -3.324219 C 7.058594 -2.535156 6.96875 -1.90625 6.789062 -1.4375 C 6.609375 -0.972656 6.285156 -0.59375 5.820312 -0.304688 C 5.351562 -0.0117188 4.738281 0.132812 3.980469 0.132812 C 3.242188 0.132812 2.640625 0.0078125 2.171875 -0.246094 C 1.699219 -0.5 1.367188 -0.871094 1.164062 -1.351562 C 0.964844 -1.832031 0.863281 -2.492188 0.863281 -3.324219 L 0.863281 -7.875 L 1.90625 -7.875 L 1.90625 -3.328125 C 1.90625 -2.644531 1.96875 -2.140625 2.097656 -1.816406 C 2.222656 -1.492188 2.441406 -1.246094 2.753906 -1.070312 C 3.0625 -0.894531 3.441406 -0.804688 3.890625 -0.804688 C 4.65625 -0.804688 5.199219 -0.980469 5.527344 -1.328125 C 5.851562 -1.675781 6.015625 -2.34375 6.015625 -3.328125 Z M 6.015625 -7.875 "/>
</g>
<g id="glyph-1-13">
<path d="M 4.445312 -0.703125 C 4.089844 -0.398438 3.746094 -0.183594 3.414062 -0.0585938 C 3.082031 0.0664062 2.726562 0.128906 2.347656 0.128906 C 1.71875 0.128906 1.238281 -0.0234375 0.902344 -0.332031 C 0.566406 -0.636719 0.398438 -1.027344 0.398438 -1.503906 C 0.398438 -1.78125 0.460938 -2.039062 0.589844 -2.269531 C 0.714844 -2.5 0.882812 -2.6875 1.085938 -2.824219 C 1.292969 -2.964844 1.523438 -3.070312 1.78125 -3.140625 C 1.972656 -3.191406 2.257812 -3.242188 2.640625 -3.289062 C 3.421875 -3.378906 3.996094 -3.492188 4.367188 -3.621094 C 4.371094 -3.753906 4.371094 -3.835938 4.371094 -3.871094 C 4.371094 -4.265625 4.28125 -4.542969 4.097656 -4.703125 C 3.851562 -4.921875 3.484375 -5.03125 2.996094 -5.03125 C 2.542969 -5.03125 2.207031 -4.953125 1.988281 -4.792969 C 1.773438 -4.632812 1.613281 -4.351562 1.507812 -3.949219 L 0.5625 -4.078125 C 0.648438 -4.480469 0.792969 -4.808594 0.988281 -5.058594 C 1.183594 -5.304688 1.46875 -5.496094 1.84375 -5.632812 C 2.214844 -5.765625 2.644531 -5.832031 3.136719 -5.832031 C 3.625 -5.832031 4.019531 -5.777344 4.324219 -5.660156 C 4.628906 -5.546875 4.851562 -5.402344 4.996094 -5.230469 C 5.136719 -5.054688 5.238281 -4.835938 5.296875 -4.570312 C 5.328125 -4.40625 5.34375 -4.109375 5.34375 -3.679688 L 5.34375 -2.390625 C 5.34375 -1.492188 5.363281 -0.921875 5.40625 -0.683594 C 5.445312 -0.445312 5.527344 -0.21875 5.648438 0 L 4.640625 0 C 4.539062 -0.199219 4.476562 -0.433594 4.445312 -0.703125 M 4.367188 -2.863281 C 4.015625 -2.71875 3.488281 -2.597656 2.789062 -2.496094 C 2.390625 -2.441406 2.109375 -2.375 1.945312 -2.304688 C 1.78125 -2.234375 1.652344 -2.128906 1.5625 -1.988281 C 1.472656 -1.851562 1.429688 -1.699219 1.429688 -1.53125 C 1.429688 -1.273438 1.527344 -1.058594 1.722656 -0.886719 C 1.917969 -0.714844 2.203125 -0.628906 2.578125 -0.628906 C 2.949219 -0.628906 3.28125 -0.710938 3.570312 -0.871094 C 3.863281 -1.035156 4.074219 -1.257812 4.210938 -1.542969 C 4.316406 -1.761719 4.367188 -2.082031 4.367188 -2.507812 Z M 4.367188 -2.863281 "/>
</g>
<g id="glyph-1-14">
<path d="M 0.214844 0 L 0.214844 -0.785156 L 3.84375 -4.953125 C 3.433594 -4.929688 3.070312 -4.921875 2.753906 -4.921875 L 0.429688 -4.921875 L 0.429688 -5.703125 L 5.09375 -5.703125 L 5.09375 -5.066406 L 2.003906 -1.445312 L 1.40625 -0.785156 C 1.839844 -0.816406 2.246094 -0.832031 2.625 -0.832031 L 5.265625 -0.832031 L 5.265625 0 Z M 0.214844 0 "/>
</g>
<g id="glyph-1-15">
<path d="M 4.628906 -1.835938 L 5.628906 -1.714844 C 5.472656 -1.128906 5.179688 -0.675781 4.753906 -0.355469 C 4.328125 -0.03125 3.78125 0.128906 3.121094 0.128906 C 2.285156 0.128906 1.625 -0.128906 1.136719 -0.640625 C 0.648438 -1.15625 0.402344 -1.875 0.402344 -2.804688 C 0.402344 -3.761719 0.648438 -4.507812 1.144531 -5.039062 C 1.636719 -5.566406 2.277344 -5.832031 3.066406 -5.832031 C 3.828125 -5.832031 4.453125 -5.574219 4.9375 -5.054688 C 5.417969 -4.535156 5.660156 -3.804688 5.660156 -2.863281 C 5.660156 -2.804688 5.660156 -2.71875 5.65625 -2.605469 L 1.402344 -2.605469 C 1.4375 -1.976562 1.613281 -1.5 1.933594 -1.164062 C 2.253906 -0.832031 2.648438 -0.664062 3.125 -0.664062 C 3.480469 -0.664062 3.78125 -0.757812 4.035156 -0.945312 C 4.285156 -1.132812 4.484375 -1.429688 4.628906 -1.835938 M 1.457031 -3.398438 L 4.640625 -3.398438 C 4.597656 -3.878906 4.476562 -4.238281 4.273438 -4.480469 C 3.96875 -4.851562 3.566406 -5.039062 3.078125 -5.039062 C 2.632812 -5.039062 2.261719 -4.890625 1.957031 -4.59375 C 1.65625 -4.296875 1.488281 -3.898438 1.457031 -3.398438 M 2.496094 -6.414062 L 3.210938 -7.917969 L 4.480469 -7.917969 L 3.296875 -6.414062 Z M 2.496094 -6.414062 "/>
</g>
<g id="glyph-1-16">
<path d="M 4.628906 -1.835938 L 5.628906 -1.714844 C 5.472656 -1.128906 5.179688 -0.675781 4.753906 -0.355469 C 4.328125 -0.03125 3.78125 0.128906 3.121094 0.128906 C 2.285156 0.128906 1.625 -0.128906 1.136719 -0.640625 C 0.648438 -1.15625 0.402344 -1.875 0.402344 -2.804688 C 0.402344 -3.761719 0.648438 -4.507812 1.144531 -5.039062 C 1.636719 -5.566406 2.277344 -5.832031 3.066406 -5.832031 C 3.828125 -5.832031 4.453125 -5.574219 4.9375 -5.054688 C 5.417969 -4.535156 5.660156 -3.804688 5.660156 -2.863281 C 5.660156 -2.804688 5.660156 -2.71875 5.65625 -2.605469 L 1.402344 -2.605469 C 1.4375 -1.976562 1.613281 -1.5 1.933594 -1.164062 C 2.253906 -0.832031 2.648438 -0.664062 3.125 -0.664062 C 3.480469 -0.664062 3.78125 -0.757812 4.035156 -0.945312 C 4.285156 -1.132812 4.484375 -1.429688 4.628906 -1.835938 M 1.457031 -3.398438 L 4.640625 -3.398438 C 4.597656 -3.878906 4.476562 -4.238281 4.273438 -4.480469 C 3.96875 -4.851562 3.566406 -5.039062 3.078125 -5.039062 C 2.632812 -5.039062 2.261719 -4.890625 1.957031 -4.59375 C 1.65625 -4.296875 1.488281 -3.898438 1.457031 -3.398438 M 3.683594 -6.414062 L 2.90625 -6.414062 L 1.664062 -7.917969 L 2.960938 -7.917969 Z M 3.683594 -6.414062 "/>
</g>
<g id="glyph-1-17">
<path d="M 4.359375 2.1875 L 4.359375 -0.605469 C 4.210938 -0.394531 4 -0.21875 3.730469 -0.0820312 C 3.460938 0.0585938 3.171875 0.128906 2.867188 0.128906 C 2.191406 0.128906 1.609375 -0.140625 1.121094 -0.683594 C 0.632812 -1.222656 0.386719 -1.964844 0.386719 -2.90625 C 0.386719 -3.480469 0.484375 -3.992188 0.683594 -4.445312 C 0.882812 -4.902344 1.171875 -5.246094 1.550781 -5.480469 C 1.925781 -5.714844 2.34375 -5.832031 2.792969 -5.832031 C 3.5 -5.832031 4.054688 -5.535156 4.457031 -4.941406 L 4.457031 -5.703125 L 5.328125 -5.703125 L 5.328125 2.1875 L 4.359375 2.1875 M 1.378906 -2.867188 C 1.378906 -2.132812 1.535156 -1.582031 1.84375 -1.214844 C 2.148438 -0.847656 2.519531 -0.664062 2.949219 -0.664062 C 3.359375 -0.664062 3.714844 -0.839844 4.011719 -1.191406 C 4.308594 -1.539062 4.457031 -2.070312 4.457031 -2.78125 C 4.457031 -3.542969 4.300781 -4.113281 3.988281 -4.496094 C 3.675781 -4.878906 3.308594 -5.070312 2.882812 -5.070312 C 2.464844 -5.070312 2.109375 -4.890625 1.816406 -4.535156 C 1.527344 -4.179688 1.378906 -3.625 1.378906 -2.867188 Z M 1.378906 -2.867188 "/>
</g>
<g id="glyph-1-18">
<path d="M 4.464844 0 L 4.464844 -0.835938 C 4.019531 -0.195312 3.414062 0.128906 2.652344 0.128906 C 2.316406 0.128906 2.003906 0.0625 1.710938 -0.0625 C 1.417969 -0.195312 1.203125 -0.355469 1.0625 -0.550781 C 0.917969 -0.746094 0.820312 -0.984375 0.761719 -1.265625 C 0.722656 -1.457031 0.703125 -1.757812 0.703125 -2.171875 L 0.703125 -5.703125 L 1.671875 -5.703125 L 1.671875 -2.539062 C 1.671875 -2.035156 1.691406 -1.695312 1.730469 -1.519531 C 1.789062 -1.265625 1.917969 -1.066406 2.117188 -0.921875 C 2.3125 -0.777344 2.554688 -0.703125 2.847656 -0.703125 C 3.136719 -0.703125 3.410156 -0.777344 3.664062 -0.925781 C 3.917969 -1.074219 4.097656 -1.277344 4.203125 -1.535156 C 4.308594 -1.789062 4.359375 -2.160156 4.359375 -2.648438 L 4.359375 -5.703125 L 5.328125 -5.703125 L 5.328125 0 Z M 4.464844 0 "/>
</g>
<g id="glyph-1-19">
<path d="M 0.703125 0 L 0.703125 -7.875 L 1.671875 -7.875 L 1.671875 0 Z M 0.703125 0 "/>
</g>
<g id="glyph-1-20">
<path d="M 2.308594 0 L 0.140625 -5.703125 L 1.160156 -5.703125 L 2.382812 -2.289062 C 2.515625 -1.917969 2.640625 -1.535156 2.75 -1.140625 C 2.835938 -1.4375 2.957031 -1.800781 3.109375 -2.222656 L 4.378906 -5.703125 L 5.371094 -5.703125 L 3.210938 0 Z M 2.308594 0 "/>
</g>
<g id="glyph-2-0">
<path d="M 0 -0.871094 L -7.875 -0.871094 L -7.875 -6.5625 L -6.945312 -6.5625 L -6.945312 -1.914062 L -4.53125 -1.914062 L -4.53125 -6.269531 L -3.609375 -6.269531 L -3.609375 -1.914062 L -0.929688 -1.914062 L -0.929688 -6.746094 L 0 -6.746094 Z M 0 -0.871094 "/>
</g>
<g id="glyph-2-1">
<path d="M 0 -0.957031 L -4.953125 -0.957031 L -4.953125 -0.101562 L -5.703125 -0.101562 L -5.703125 -0.957031 L -6.3125 -0.957031 C -6.695312 -0.957031 -6.980469 -0.988281 -7.164062 -1.058594 C -7.414062 -1.152344 -7.617188 -1.316406 -7.773438 -1.550781 C -7.929688 -1.785156 -8.007812 -2.113281 -8.007812 -2.535156 C -8.007812 -2.808594 -7.976562 -3.109375 -7.910156 -3.4375 L -7.070312 -3.292969 C -7.105469 -3.09375 -7.121094 -2.902344 -7.121094 -2.722656 C -7.121094 -2.429688 -7.058594 -2.222656 -6.933594 -2.101562 C -6.808594 -1.976562 -6.574219 -1.917969 -6.230469 -1.917969 L -5.703125 -1.917969 L -5.703125 -3.03125 L -4.953125 -3.03125 L -4.953125 -1.917969 L 0 -1.917969 Z M 0 -0.957031 "/>
</g>
<g id="glyph-2-2">
<path d="M -1.835938 -4.628906 L -1.714844 -5.628906 C -1.128906 -5.472656 -0.675781 -5.179688 -0.355469 -4.753906 C -0.03125 -4.328125 0.128906 -3.78125 0.128906 -3.121094 C 0.128906 -2.285156 -0.128906 -1.625 -0.640625 -1.136719 C -1.15625 -0.648438 -1.875 -0.402344 -2.804688 -0.402344 C -3.761719 -0.402344 -4.507812 -0.648438 -5.039062 -1.144531 C -5.566406 -1.636719 -5.832031 -2.277344 -5.832031 -3.066406 C -5.832031 -3.828125 -5.574219 -4.453125 -5.054688 -4.9375 C -4.535156 -5.417969 -3.804688 -5.660156 -2.863281 -5.660156 C -2.804688 -5.660156 -2.71875 -5.660156 -2.605469 -5.65625 L -2.605469 -1.402344 C -1.976562 -1.4375 -1.5 -1.613281 -1.164062 -1.933594 C -0.832031 -2.253906 -0.664062 -2.648438 -0.664062 -3.125 C -0.664062 -3.480469 -0.757812 -3.78125 -0.945312 -4.035156 C -1.132812 -4.285156 -1.429688 -4.484375 -1.835938 -4.628906 M -3.398438 -1.457031 L -3.398438 -4.640625 C -3.878906 -4.597656 -4.238281 -4.476562 -4.480469 -4.273438 C -4.851562 -3.96875 -5.039062 -3.566406 -5.039062 -3.078125 C -5.039062 -2.632812 -4.890625 -2.261719 -4.59375 -1.957031 C -4.296875 -1.65625 -3.898438 -1.488281 -3.398438 -1.457031 Z M -3.398438 -1.457031 "/>
</g>
<g id="glyph-2-3">
<path d="M -2.089844 -4.445312 L -1.964844 -5.398438 C -1.308594 -5.292969 -0.796875 -5.027344 -0.425781 -4.601562 C -0.0546875 -4.171875 0.128906 -3.648438 0.128906 -3.023438 C 0.128906 -2.242188 -0.125 -1.617188 -0.636719 -1.140625 C -1.148438 -0.667969 -1.878906 -0.429688 -2.832031 -0.429688 C -3.445312 -0.429688 -3.984375 -0.53125 -4.445312 -0.734375 C -4.910156 -0.941406 -5.253906 -1.25 -5.488281 -1.667969 C -5.71875 -2.085938 -5.832031 -2.539062 -5.832031 -3.03125 C -5.832031 -3.648438 -5.675781 -4.15625 -5.363281 -4.550781 C -5.050781 -4.941406 -4.605469 -5.195312 -4.027344 -5.304688 L -3.882812 -4.367188 C -4.265625 -4.277344 -4.554688 -4.117188 -4.75 -3.890625 C -4.941406 -3.664062 -5.039062 -3.390625 -5.039062 -3.066406 C -5.039062 -2.578125 -4.863281 -2.183594 -4.515625 -1.878906 C -4.164062 -1.574219 -3.613281 -1.421875 -2.859375 -1.421875 C -2.089844 -1.421875 -1.535156 -1.570312 -1.1875 -1.863281 C -0.839844 -2.15625 -0.664062 -2.539062 -0.664062 -3.011719 C -0.664062 -3.394531 -0.78125 -3.710938 -1.015625 -3.964844 C -1.246094 -4.21875 -1.605469 -4.378906 -2.089844 -4.445312 Z M -2.089844 -4.445312 "/>
</g>
<g id="glyph-2-4">
<path d="M -0.863281 -2.835938 L -0.0117188 -2.976562 C 0.046875 -2.703125 0.0742188 -2.460938 0.0742188 -2.246094 C 0.0742188 -1.894531 0.0195312 -1.621094 -0.0898438 -1.429688 C -0.203125 -1.234375 -0.347656 -1.097656 -0.527344 -1.019531 C -0.710938 -0.941406 -1.089844 -0.902344 -1.671875 -0.902344 L -4.953125 -0.902344 L -4.953125 -0.195312 L -5.703125 -0.195312 L -5.703125 -0.902344 L -7.117188 -0.902344 L -7.695312 -1.863281 L -5.703125 -1.863281 L -5.703125 -2.835938 L -4.953125 -2.835938 L -4.953125 -1.863281 L -1.617188 -1.863281 C -1.339844 -1.863281 -1.164062 -1.878906 -1.085938 -1.914062 C -1.007812 -1.949219 -0.945312 -2.003906 -0.898438 -2.082031 C -0.851562 -2.160156 -0.828125 -2.269531 -0.828125 -2.410156 C -0.828125 -2.519531 -0.839844 -2.660156 -0.863281 -2.835938 Z M -0.863281 -2.835938 "/>
</g>
<g id="glyph-2-5">
<path d="M -6.761719 -0.730469 L -7.875 -0.730469 L -7.875 -1.699219 L -6.761719 -1.699219 L -6.761719 -0.730469 M 0 -0.730469 L -5.703125 -0.730469 L -5.703125 -1.699219 L 0 -1.695312 Z M 0 -0.730469 "/>
</g>
<g id="glyph-3-0">
<path d="M 1.019531 0 L 1.019531 -9.449219 L 4.273438 -9.449219 C 5.007812 -9.449219 5.570312 -9.402344 5.957031 -9.3125 C 6.496094 -9.1875 6.957031 -8.964844 7.339844 -8.636719 C 7.839844 -8.214844 8.210938 -7.675781 8.460938 -7.023438 C 8.707031 -6.367188 8.828125 -5.617188 8.828125 -4.777344 C 8.828125 -4.058594 8.746094 -3.421875 8.578125 -2.867188 C 8.410156 -2.3125 8.195312 -1.855469 7.933594 -1.492188 C 7.671875 -1.128906 7.386719 -0.84375 7.074219 -0.636719 C 6.761719 -0.425781 6.386719 -0.269531 5.945312 -0.160156 C 5.503906 -0.0546875 5 0 4.429688 0 L 1.019531 0 M 2.269531 -1.113281 L 4.285156 -1.113281 C 4.910156 -1.113281 5.398438 -1.171875 5.753906 -1.289062 C 6.105469 -1.40625 6.390625 -1.566406 6.601562 -1.777344 C 6.898438 -2.074219 7.128906 -2.472656 7.292969 -2.972656 C 7.457031 -3.476562 7.539062 -4.082031 7.539062 -4.796875 C 7.539062 -5.785156 7.378906 -6.542969 7.054688 -7.074219 C 6.730469 -7.605469 6.335938 -7.960938 5.871094 -8.140625 C 5.535156 -8.269531 4.996094 -8.332031 4.253906 -8.332031 L 2.269531 -8.332031 Z M 2.269531 -1.113281 "/>
</g>
<g id="glyph-3-1">
<path d="M 0.875 -8.113281 L 0.875 -9.449219 L 2.035156 -9.449219 L 2.035156 -8.113281 L 0.875 -8.113281 M 0.875 0 L 0.875 -6.84375 L 2.035156 -6.84375 L 2.035156 0 Z M 0.875 0 "/>
</g>
<g id="glyph-3-2">
<path d="M 0.40625 -2.042969 L 1.554688 -2.222656 C 1.617188 -1.765625 1.796875 -1.410156 2.089844 -1.167969 C 2.386719 -0.921875 2.796875 -0.800781 3.324219 -0.800781 C 3.859375 -0.800781 4.253906 -0.90625 4.511719 -1.125 C 4.769531 -1.339844 4.898438 -1.597656 4.898438 -1.886719 C 4.898438 -2.152344 4.785156 -2.355469 4.558594 -2.507812 C 4.398438 -2.609375 4.003906 -2.742188 3.371094 -2.898438 C 2.519531 -3.113281 1.929688 -3.300781 1.601562 -3.457031 C 1.273438 -3.613281 1.023438 -3.832031 0.855469 -4.109375 C 0.683594 -4.386719 0.597656 -4.691406 0.597656 -5.027344 C 0.597656 -5.332031 0.667969 -5.613281 0.808594 -5.875 C 0.949219 -6.136719 1.136719 -6.351562 1.378906 -6.523438 C 1.558594 -6.65625 1.804688 -6.769531 2.117188 -6.859375 C 2.429688 -6.953125 2.761719 -7 3.121094 -7 C 3.65625 -7 4.128906 -6.921875 4.535156 -6.765625 C 4.941406 -6.613281 5.238281 -6.402344 5.433594 -6.140625 C 5.625 -5.875 5.761719 -5.519531 5.832031 -5.078125 L 4.699219 -4.925781 C 4.648438 -5.277344 4.496094 -5.550781 4.25 -5.75 C 4.003906 -5.945312 3.65625 -6.046875 3.203125 -6.046875 C 2.671875 -6.046875 2.289062 -5.957031 2.0625 -5.78125 C 1.835938 -5.605469 1.722656 -5.398438 1.722656 -5.164062 C 1.722656 -5.011719 1.769531 -4.875 1.863281 -4.757812 C 1.957031 -4.632812 2.105469 -4.527344 2.308594 -4.445312 C 2.421875 -4.402344 2.765625 -4.304688 3.332031 -4.152344 C 4.152344 -3.929688 4.726562 -3.753906 5.050781 -3.613281 C 5.375 -3.472656 5.628906 -3.269531 5.8125 -3.003906 C 6 -2.738281 6.089844 -2.40625 6.089844 -2.011719 C 6.089844 -1.625 5.976562 -1.261719 5.753906 -0.917969 C 5.527344 -0.578125 5.203125 -0.3125 4.777344 -0.125 C 4.351562 0.0625 3.871094 0.15625 3.332031 0.15625 C 2.441406 0.15625 1.765625 -0.03125 1.296875 -0.398438 C 0.832031 -0.769531 0.535156 -1.316406 0.40625 -2.042969 Z M 0.40625 -2.042969 "/>
</g>
<g id="glyph-3-3">
<path d="M 3.402344 -1.039062 L 3.570312 -0.0117188 C 3.242188 0.0546875 2.953125 0.0898438 2.695312 0.0898438 C 2.273438 0.0898438 1.945312 0.0234375 1.714844 -0.109375 C 1.484375 -0.242188 1.320312 -0.417969 1.226562 -0.636719 C 1.128906 -0.851562 1.082031 -1.308594 1.082031 -2.003906 L 1.082031 -5.941406 L 0.230469 -5.941406 L 0.230469 -6.84375 L 1.082031 -6.84375 L 1.082031 -8.539062 L 2.238281 -9.234375 L 2.238281 -6.84375 L 3.402344 -6.84375 L 3.402344 -5.941406 L 2.238281 -5.941406 L 2.238281 -1.941406 C 2.238281 -1.609375 2.257812 -1.394531 2.296875 -1.300781 C 2.339844 -1.207031 2.40625 -1.132812 2.496094 -1.078125 C 2.589844 -1.019531 2.722656 -0.992188 2.894531 -0.992188 C 3.023438 -0.992188 3.191406 -1.007812 3.402344 -1.039062 Z M 3.402344 -1.039062 "/>
</g>
<g id="glyph-3-4">
<path d="M 0.855469 0 L 0.855469 -6.84375 L 1.902344 -6.84375 L 1.902344 -5.808594 C 2.167969 -6.292969 2.414062 -6.613281 2.640625 -6.765625 C 2.863281 -6.921875 3.113281 -7 3.382812 -7 C 3.773438 -7 4.171875 -6.875 4.578125 -6.625 L 4.175781 -5.550781 C 3.894531 -5.71875 3.609375 -5.800781 3.324219 -5.800781 C 3.070312 -5.800781 2.84375 -5.722656 2.640625 -5.570312 C 2.441406 -5.417969 2.296875 -5.207031 2.210938 -4.9375 C 2.082031 -4.523438 2.015625 -4.074219 2.015625 -3.582031 L 2.015625 0 Z M 0.855469 0 "/>
</g>
<g id="glyph-3-5">
<path d="M 1.941406 0 L 0.863281 0 L 0.863281 -9.449219 L 2.023438 -9.449219 L 2.023438 -6.078125 C 2.515625 -6.691406 3.140625 -7 3.898438 -7 C 4.320312 -7 4.71875 -6.914062 5.09375 -6.746094 C 5.472656 -6.574219 5.78125 -6.335938 6.023438 -6.03125 C 6.265625 -5.722656 6.457031 -5.351562 6.59375 -4.917969 C 6.730469 -4.484375 6.800781 -4.019531 6.800781 -3.527344 C 6.800781 -2.351562 6.507812 -1.445312 5.929688 -0.804688 C 5.351562 -0.164062 4.652344 0.15625 3.839844 0.15625 C 3.035156 0.15625 2.398438 -0.183594 1.941406 -0.855469 L 1.941406 0 M 1.925781 -3.472656 C 1.925781 -2.652344 2.039062 -2.058594 2.261719 -1.695312 C 2.628906 -1.097656 3.121094 -0.800781 3.746094 -0.800781 C 4.25 -0.800781 4.691406 -1.019531 5.058594 -1.460938 C 5.429688 -1.898438 5.613281 -2.554688 5.613281 -3.429688 C 5.613281 -4.324219 5.4375 -4.980469 5.082031 -5.40625 C 4.726562 -5.832031 4.300781 -6.046875 3.796875 -6.046875 C 3.289062 -6.046875 2.851562 -5.824219 2.480469 -5.386719 C 2.113281 -4.945312 1.925781 -4.308594 1.925781 -3.472656 Z M 1.925781 -3.472656 "/>
</g>
<g id="glyph-3-6">
<path d="M 5.355469 0 L 5.355469 -1.003906 C 4.824219 -0.230469 4.097656 0.15625 3.183594 0.15625 C 2.78125 0.15625 2.402344 0.078125 2.054688 -0.078125 C 1.703125 -0.230469 1.441406 -0.425781 1.273438 -0.660156 C 1.101562 -0.894531 0.984375 -1.183594 0.914062 -1.519531 C 0.867188 -1.75 0.84375 -2.109375 0.84375 -2.605469 L 0.84375 -6.84375 L 2.003906 -6.84375 L 2.003906 -3.046875 C 2.003906 -2.441406 2.027344 -2.035156 2.074219 -1.824219 C 2.148438 -1.519531 2.304688 -1.28125 2.539062 -1.105469 C 2.777344 -0.929688 3.066406 -0.84375 3.414062 -0.84375 C 3.765625 -0.84375 4.089844 -0.933594 4.394531 -1.113281 C 4.699219 -1.289062 4.917969 -1.53125 5.042969 -1.839844 C 5.171875 -2.148438 5.234375 -2.59375 5.234375 -3.175781 L 5.234375 -6.84375 L 6.394531 -6.84375 L 6.394531 0 Z M 5.355469 0 "/>
</g>
<g id="glyph-3-7">
<path d="M 0.4375 -3.421875 C 0.4375 -4.691406 0.789062 -5.628906 1.496094 -6.238281 C 2.082031 -6.746094 2.800781 -7 3.648438 -7 C 4.589844 -7 5.359375 -6.691406 5.957031 -6.074219 C 6.550781 -5.457031 6.851562 -4.605469 6.851562 -3.519531 C 6.851562 -2.636719 6.71875 -1.945312 6.453125 -1.441406 C 6.191406 -0.9375 5.804688 -0.542969 5.300781 -0.265625 C 4.796875 0.015625 4.246094 0.15625 3.648438 0.15625 C 2.691406 0.15625 1.914062 -0.152344 1.324219 -0.765625 C 0.734375 -1.382812 0.4375 -2.265625 0.4375 -3.421875 M 1.628906 -3.421875 C 1.628906 -2.546875 1.820312 -1.890625 2.203125 -1.453125 C 2.585938 -1.015625 3.066406 -0.800781 3.648438 -0.800781 C 4.222656 -0.800781 4.703125 -1.019531 5.085938 -1.457031 C 5.46875 -1.894531 5.660156 -2.5625 5.660156 -3.460938 C 5.660156 -4.308594 5.464844 -4.949219 5.082031 -5.386719 C 4.699219 -5.820312 4.21875 -6.039062 3.648438 -6.039062 C 3.066406 -6.039062 2.585938 -5.820312 2.203125 -5.386719 C 1.820312 -4.953125 1.628906 -4.300781 1.628906 -3.421875 Z M 1.628906 -3.421875 "/>
</g>
<g id="glyph-3-8">
<path d="M 0.871094 0 L 0.871094 -6.84375 L 1.914062 -6.84375 L 1.914062 -5.871094 C 2.417969 -6.625 3.144531 -7 4.09375 -7 C 4.503906 -7 4.882812 -6.925781 5.230469 -6.777344 C 5.578125 -6.628906 5.835938 -6.433594 6.007812 -6.195312 C 6.179688 -5.953125 6.300781 -5.667969 6.367188 -5.335938 C 6.410156 -5.121094 6.433594 -4.746094 6.433594 -4.207031 L 6.433594 0 L 5.273438 0 L 5.273438 -4.164062 C 5.273438 -4.636719 5.226562 -4.988281 5.136719 -5.222656 C 5.046875 -5.457031 4.886719 -5.644531 4.65625 -5.785156 C 4.425781 -5.925781 4.15625 -5.992188 3.847656 -5.992188 C 3.355469 -5.992188 2.925781 -5.835938 2.570312 -5.523438 C 2.210938 -5.210938 2.03125 -4.613281 2.03125 -3.738281 L 2.03125 0 Z M 0.871094 0 "/>
</g>
<g id="glyph-3-9">
</g>
<g id="glyph-3-10">
<path d="M 5.3125 0 L 5.3125 -0.863281 C 4.875 -0.183594 4.238281 0.15625 3.398438 0.15625 C 2.851562 0.15625 2.347656 0.00390625 1.890625 -0.296875 C 1.433594 -0.597656 1.078125 -1.015625 0.828125 -1.554688 C 0.578125 -2.097656 0.453125 -2.714844 0.453125 -3.414062 C 0.453125 -4.097656 0.566406 -4.71875 0.792969 -5.277344 C 1.019531 -5.832031 1.363281 -6.257812 1.816406 -6.554688 C 2.273438 -6.851562 2.78125 -7 3.34375 -7 C 3.757812 -7 4.125 -6.914062 4.445312 -6.738281 C 4.769531 -6.566406 5.03125 -6.335938 5.234375 -6.058594 L 5.234375 -9.449219 L 6.386719 -9.449219 L 6.386719 0 L 5.3125 0 M 1.644531 -3.414062 C 1.644531 -2.539062 1.828125 -1.882812 2.199219 -1.449219 C 2.566406 -1.015625 3.003906 -0.800781 3.507812 -0.800781 C 4.011719 -0.800781 4.445312 -1.007812 4.796875 -1.421875 C 5.152344 -1.835938 5.332031 -2.46875 5.332031 -3.320312 C 5.332031 -4.257812 5.148438 -4.945312 4.789062 -5.382812 C 4.429688 -5.820312 3.984375 -6.039062 3.453125 -6.039062 C 2.9375 -6.039062 2.507812 -5.828125 2.164062 -5.40625 C 1.816406 -4.988281 1.644531 -4.324219 1.644531 -3.414062 Z M 1.644531 -3.414062 "/>
</g>
<g id="glyph-3-11">
<path d="M 0.871094 0 L 0.871094 -6.84375 L 1.90625 -6.84375 L 1.90625 -5.882812 C 2.121094 -6.21875 2.410156 -6.488281 2.765625 -6.695312 C 3.121094 -6.898438 3.527344 -7 3.984375 -7 C 4.488281 -7 4.90625 -6.894531 5.230469 -6.683594 C 5.554688 -6.472656 5.785156 -6.179688 5.917969 -5.800781 C 6.457031 -6.601562 7.164062 -7 8.03125 -7 C 8.710938 -7 9.230469 -6.8125 9.597656 -6.4375 C 9.960938 -6.058594 10.144531 -5.480469 10.144531 -4.699219 L 10.144531 0 L 8.992188 0 L 8.992188 -4.3125 C 8.992188 -4.777344 8.953125 -5.109375 8.878906 -5.3125 C 8.804688 -5.519531 8.667969 -5.683594 8.46875 -5.808594 C 8.269531 -5.933594 8.039062 -5.992188 7.773438 -5.992188 C 7.292969 -5.992188 6.890625 -5.835938 6.574219 -5.515625 C 6.257812 -5.195312 6.097656 -4.679688 6.097656 -3.976562 L 6.097656 0 L 4.9375 0 L 4.9375 -4.445312 C 4.9375 -4.960938 4.84375 -5.347656 4.652344 -5.609375 C 4.464844 -5.863281 4.15625 -5.992188 3.726562 -5.992188 C 3.398438 -5.992188 3.097656 -5.90625 2.820312 -5.734375 C 2.542969 -5.5625 2.339844 -5.3125 2.21875 -4.980469 C 2.09375 -4.652344 2.03125 -4.175781 2.03125 -3.550781 L 2.03125 0 Z M 0.871094 0 "/>
</g>
<g id="glyph-3-12">
<path d="M 5.554688 -2.203125 L 6.753906 -2.054688 C 6.566406 -1.355469 6.214844 -0.8125 5.703125 -0.425781 C 5.191406 -0.0390625 4.539062 0.15625 3.746094 0.15625 C 2.742188 0.15625 1.949219 -0.152344 1.363281 -0.769531 C 0.777344 -1.386719 0.484375 -2.25 0.484375 -3.363281 C 0.484375 -4.515625 0.78125 -5.410156 1.371094 -6.046875 C 1.964844 -6.679688 2.734375 -7 3.679688 -7 C 4.59375 -7 5.34375 -6.6875 5.921875 -6.066406 C 6.503906 -5.441406 6.792969 -4.566406 6.792969 -3.433594 C 6.792969 -3.367188 6.792969 -3.261719 6.785156 -3.125 L 1.683594 -3.125 C 1.726562 -2.375 1.9375 -1.796875 2.320312 -1.398438 C 2.703125 -1 3.179688 -0.800781 3.75 -0.800781 C 4.175781 -0.800781 4.539062 -0.910156 4.839844 -1.132812 C 5.140625 -1.359375 5.378906 -1.714844 5.554688 -2.203125 M 1.746094 -4.078125 L 5.570312 -4.078125 C 5.515625 -4.65625 5.371094 -5.085938 5.128906 -5.375 C 4.761719 -5.820312 4.28125 -6.046875 3.691406 -6.046875 C 3.160156 -6.046875 2.710938 -5.867188 2.347656 -5.511719 C 1.984375 -5.152344 1.785156 -4.675781 1.746094 -4.078125 Z M 1.746094 -4.078125 "/>
</g>
</g>
<clipPath id="clip-0">
<path clip-rule="nonzero" d="M 54.703125 42.855469 L 627.519531 42.855469 L 627.519531 352.511719 L 54.703125 352.511719 Z M 54.703125 42.855469 "/>
</clipPath>
<clipPath id="clip-1">
<path clip-rule="nonzero" d="M 54.703125 301 L 627.519531 301 L 627.519531 303 L 54.703125 303 Z M 54.703125 301 "/>
</clipPath>
<clipPath id="clip-2">
<path clip-rule="nonzero" d="M 54.703125 228 L 627.519531 228 L 627.519531 230 L 54.703125 230 Z M 54.703125 228 "/>
</clipPath>
<clipPath id="clip-3">
<path clip-rule="nonzero" d="M 54.703125 155 L 627.519531 155 L 627.519531 156 L 54.703125 156 Z M 54.703125 155 "/>
</clipPath>
<clipPath id="clip-4">
<path clip-rule="nonzero" d="M 54.703125 82 L 627.519531 82 L 627.519531 83 L 54.703125 83 Z M 54.703125 82 "/>
</clipPath>
<clipPath id="clip-5">
<path clip-rule="nonzero" d="M 55 42.855469 L 56 42.855469 L 56 352.511719 L 55 352.511719 Z M 55 42.855469 "/>
</clipPath>
<clipPath id="clip-6">
<path clip-rule="nonzero" d="M 77 42.855469 L 78 42.855469 L 78 352.511719 L 77 352.511719 Z M 77 42.855469 "/>
</clipPath>
<clipPath id="clip-7">
<path clip-rule="nonzero" d="M 121 42.855469 L 122 42.855469 L 122 352.511719 L 121 352.511719 Z M 121 42.855469 "/>
</clipPath>
<clipPath id="clip-8">
<path clip-rule="nonzero" d="M 165 42.855469 L 166 42.855469 L 166 352.511719 L 165 352.511719 Z M 165 42.855469 "/>
</clipPath>
<clipPath id="clip-9">
<path clip-rule="nonzero" d="M 209 42.855469 L 210 42.855469 L 210 352.511719 L 209 352.511719 Z M 209 42.855469 "/>
</clipPath>
<clipPath id="clip-10">
<path clip-rule="nonzero" d="M 252 42.855469 L 254 42.855469 L 254 352.511719 L 252 352.511719 Z M 252 42.855469 "/>
</clipPath>
<clipPath id="clip-11">
<path clip-rule="nonzero" d="M 296 42.855469 L 298 42.855469 L 298 352.511719 L 296 352.511719 Z M 296 42.855469 "/>
</clipPath>
<clipPath id="clip-12">
<path clip-rule="nonzero" d="M 340 42.855469 L 342 42.855469 L 342 352.511719 L 340 352.511719 Z M 340 42.855469 "/>
</clipPath>
<clipPath id="clip-13">
<path clip-rule="nonzero" d="M 384 42.855469 L 386 42.855469 L 386 352.511719 L 384 352.511719 Z M 384 42.855469 "/>
</clipPath>
<clipPath id="clip-14">
<path clip-rule="nonzero" d="M 406 42.855469 L 408 42.855469 L 408 352.511719 L 406 352.511719 Z M 406 42.855469 "/>
</clipPath>
<clipPath id="clip-15">
<path clip-rule="nonzero" d="M 54.703125 337 L 627.519531 337 L 627.519531 339 L 54.703125 339 Z M 54.703125 337 "/>
</clipPath>
<clipPath id="clip-16">
<path clip-rule="nonzero" d="M 54.703125 264 L 627.519531 264 L 627.519531 266 L 54.703125 266 Z M 54.703125 264 "/>
</clipPath>
<clipPath id="clip-17">
<path clip-rule="nonzero" d="M 54.703125 191 L 627.519531 191 L 627.519531 193 L 54.703125 193 Z M 54.703125 191 "/>
</clipPath>
<clipPath id="clip-18">
<path clip-rule="nonzero" d="M 54.703125 118 L 627.519531 118 L 627.519531 120 L 54.703125 120 Z M 54.703125 118 "/>
</clipPath>
<clipPath id="clip-19">
<path clip-rule="nonzero" d="M 54.703125 45 L 627.519531 45 L 627.519531 47 L 54.703125 47 Z M 54.703125 45 "/>
</clipPath>
<clipPath id="clip-20">
<path clip-rule="nonzero" d="M 98 42.855469 L 100 42.855469 L 100 352.511719 L 98 352.511719 Z M 98 42.855469 "/>
</clipPath>
<clipPath id="clip-21">
<path clip-rule="nonzero" d="M 142 42.855469 L 144 42.855469 L 144 352.511719 L 142 352.511719 Z M 142 42.855469 "/>
</clipPath>
<clipPath id="clip-22">
<path clip-rule="nonzero" d="M 186 42.855469 L 188 42.855469 L 188 352.511719 L 186 352.511719 Z M 186 42.855469 "/>
</clipPath>
<clipPath id="clip-23">
<path clip-rule="nonzero" d="M 230 42.855469 L 232 42.855469 L 232 352.511719 L 230 352.511719 Z M 230 42.855469 "/>
</clipPath>
<clipPath id="clip-24">
<path clip-rule="nonzero" d="M 274 42.855469 L 276 42.855469 L 276 352.511719 L 274 352.511719 Z M 274 42.855469 "/>
</clipPath>
<clipPath id="clip-25">
<path clip-rule="nonzero" d="M 318 42.855469 L 320 42.855469 L 320 352.511719 L 318 352.511719 Z M 318 42.855469 "/>
</clipPath>
<clipPath id="clip-26">
<path clip-rule="nonzero" d="M 362 42.855469 L 364 42.855469 L 364 352.511719 L 362 352.511719 Z M 362 42.855469 "/>
</clipPath>
</defs>
<rect x="-63.3" y="-38.8" width="759.6" height="465.6" fill="rgb(100%, 100%, 100%)" fill-opacity="1"/>
<rect x="-63.3" y="-38.8" width="759.6" height="465.6" fill="rgb(100%, 100%, 100%)" fill-opacity="1"/>
<path fill="none" stroke-width="1.066978" stroke-linecap="round" stroke-linejoin="round" stroke="rgb(100%, 100%, 100%)" stroke-opacity="1" stroke-miterlimit="10" d="M 0 388 L 633 388 L 633 0 L 0 0 Z M 0 388 "/>
<g clip-path="url(#clip-0)">
<path fill-rule="nonzero" fill="rgb(92.156863%, 92.156863%, 92.156863%)" fill-opacity="1" d="M 54.703125 352.507812 L 627.519531 352.507812 L 627.519531 42.851562 L 54.703125 42.851562 Z M 54.703125 352.507812 "/>
</g>
<g clip-path="url(#clip-1)">
<path fill="none" stroke-width="0.533489" stroke-linecap="butt" stroke-linejoin="round" stroke="rgb(100%, 100%, 100%)" stroke-opacity="1" stroke-miterlimit="10" d="M 54.703125 301.890625 L 627.519531 301.890625 "/>
</g>
<g clip-path="url(#clip-2)">
<path fill="none" stroke-width="0.533489" stroke-linecap="butt" stroke-linejoin="round" stroke="rgb(100%, 100%, 100%)" stroke-opacity="1" stroke-miterlimit="10" d="M 54.703125 228.800781 L 627.519531 228.800781 "/>
</g>
<g clip-path="url(#clip-3)">
<path fill="none" stroke-width="0.533489" stroke-linecap="butt" stroke-linejoin="round" stroke="rgb(100%, 100%, 100%)" stroke-opacity="1" stroke-miterlimit="10" d="M 54.703125 155.714844 L 627.519531 155.714844 "/>
</g>
<g clip-path="url(#clip-4)">
<path fill="none" stroke-width="0.533489" stroke-linecap="butt" stroke-linejoin="round" stroke="rgb(100%, 100%, 100%)" stroke-opacity="1" stroke-miterlimit="10" d="M 54.703125 82.625 L 627.519531 82.625 "/>
</g>
<g clip-path="url(#clip-5)">
<path fill="none" stroke-width="0.533489" stroke-linecap="butt" stroke-linejoin="round" stroke="rgb(100%, 100%, 100%)" stroke-opacity="1" stroke-miterlimit="10" d="M 55.472656 352.507812 L 55.472656 42.855469 "/>
</g>
<g clip-path="url(#clip-6)">
<path fill="none" stroke-width="0.533489" stroke-linecap="butt" stroke-linejoin="round" stroke="rgb(100%, 100%, 100%)" stroke-opacity="1" stroke-miterlimit="10" d="M 77.445312 352.507812 L 77.445312 42.855469 "/>
</g>
<g clip-path="url(#clip-7)">
<path fill="none" stroke-width="0.533489" stroke-linecap="butt" stroke-linejoin="round" stroke="rgb(100%, 100%, 100%)" stroke-opacity="1" stroke-miterlimit="10" d="M 121.390625 352.507812 L 121.390625 42.855469 "/>
</g>
<g clip-path="url(#clip-8)">
<path fill="none" stroke-width="0.533489" stroke-linecap="butt" stroke-linejoin="round" stroke="rgb(100%, 100%, 100%)" stroke-opacity="1" stroke-miterlimit="10" d="M 165.335938 352.507812 L 165.335938 42.855469 "/>
</g>
<g clip-path="url(#clip-9)">
<path fill="none" stroke-width="0.533489" stroke-linecap="butt" stroke-linejoin="round" stroke="rgb(100%, 100%, 100%)" stroke-opacity="1" stroke-miterlimit="10" d="M 209.277344 352.507812 L 209.277344 42.855469 "/>
</g>
<g clip-path="url(#clip-10)">
<path fill="none" stroke-width="0.533489" stroke-linecap="butt" stroke-linejoin="round" stroke="rgb(100%, 100%, 100%)" stroke-opacity="1" stroke-miterlimit="10" d="M 253.222656 352.507812 L 253.222656 42.855469 "/>
</g>
<g clip-path="url(#clip-11)">
<path fill="none" stroke-width="0.533489" stroke-linecap="butt" stroke-linejoin="round" stroke="rgb(100%, 100%, 100%)" stroke-opacity="1" stroke-miterlimit="10" d="M 297.167969 352.507812 L 297.167969 42.855469 "/>
</g>
<g clip-path="url(#clip-12)">
<path fill="none" stroke-width="0.533489" stroke-linecap="butt" stroke-linejoin="round" stroke="rgb(100%, 100%, 100%)" stroke-opacity="1" stroke-miterlimit="10" d="M 341.113281 352.507812 L 341.113281 42.855469 "/>
</g>
<g clip-path="url(#clip-13)">
<path fill="none" stroke-width="0.533489" stroke-linecap="butt" stroke-linejoin="round" stroke="rgb(100%, 100%, 100%)" stroke-opacity="1" stroke-miterlimit="10" d="M 385.058594 352.507812 L 385.058594 42.855469 "/>
</g>
<g clip-path="url(#clip-14)">
<path fill="none" stroke-width="0.533489" stroke-linecap="butt" stroke-linejoin="round" stroke="rgb(100%, 100%, 100%)" stroke-opacity="1" stroke-miterlimit="10" d="M 407.027344 352.507812 L 407.027344 42.855469 "/>
</g>
<g clip-path="url(#clip-15)">
<path fill="none" stroke-width="1.066978" stroke-linecap="butt" stroke-linejoin="round" stroke="rgb(100%, 100%, 100%)" stroke-opacity="1" stroke-miterlimit="10" d="M 54.703125 338.433594 L 627.519531 338.433594 "/>
</g>
<g clip-path="url(#clip-16)">
<path fill="none" stroke-width="1.066978" stroke-linecap="butt" stroke-linejoin="round" stroke="rgb(100%, 100%, 100%)" stroke-opacity="1" stroke-miterlimit="10" d="M 54.703125 265.347656 L 627.519531 265.347656 "/>
</g>
<g clip-path="url(#clip-17)">
<path fill="none" stroke-width="1.066978" stroke-linecap="butt" stroke-linejoin="round" stroke="rgb(100%, 100%, 100%)" stroke-opacity="1" stroke-miterlimit="10" d="M 54.703125 192.257812 L 627.519531 192.257812 "/>
</g>
<g clip-path="url(#clip-18)">
<path fill="none" stroke-width="1.066978" stroke-linecap="butt" stroke-linejoin="round" stroke="rgb(100%, 100%, 100%)" stroke-opacity="1" stroke-miterlimit="10" d="M 54.703125 119.171875 L 627.519531 119.171875 "/>
</g>
<g clip-path="url(#clip-19)">
<path fill="none" stroke-width="1.066978" stroke-linecap="butt" stroke-linejoin="round" stroke="rgb(100%, 100%, 100%)" stroke-opacity="1" stroke-miterlimit="10" d="M 54.703125 46.082031 L 627.519531 46.082031 "/>
</g>
<g clip-path="url(#clip-20)">
<path fill="none" stroke-width="1.066978" stroke-linecap="butt" stroke-linejoin="round" stroke="rgb(100%, 100%, 100%)" stroke-opacity="1" stroke-miterlimit="10" d="M 99.417969 352.507812 L 99.417969 42.855469 "/>
</g>
<g clip-path="url(#clip-21)">
<path fill="none" stroke-width="1.066978" stroke-linecap="butt" stroke-linejoin="round" stroke="rgb(100%, 100%, 100%)" stroke-opacity="1" stroke-miterlimit="10" d="M 143.363281 352.507812 L 143.363281 42.855469 "/>
</g>
<g clip-path="url(#clip-22)">
<path fill="none" stroke-width="1.066978" stroke-linecap="butt" stroke-linejoin="round" stroke="rgb(100%, 100%, 100%)" stroke-opacity="1" stroke-miterlimit="10" d="M 187.308594 352.507812 L 187.308594 42.855469 "/>
</g>
<g clip-path="url(#clip-23)">
<path fill="none" stroke-width="1.066978" stroke-linecap="butt" stroke-linejoin="round" stroke="rgb(100%, 100%, 100%)" stroke-opacity="1" stroke-miterlimit="10" d="M 231.25 352.507812 L 231.25 42.855469 "/>
</g>
<g clip-path="url(#clip-24)">
<path fill="none" stroke-width="1.066978" stroke-linecap="butt" stroke-linejoin="round" stroke="rgb(100%, 100%, 100%)" stroke-opacity="1" stroke-miterlimit="10" d="M 275.195312 352.507812 L 275.195312 42.855469 "/>
</g>
<g clip-path="url(#clip-25)">
<path fill="none" stroke-width="1.066978" stroke-linecap="butt" stroke-linejoin="round" stroke="rgb(100%, 100%, 100%)" stroke-opacity="1" stroke-miterlimit="10" d="M 319.140625 352.507812 L 319.140625 42.855469 "/>
</g>
<g clip-path="url(#clip-26)">
<path fill="none" stroke-width="1.066978" stroke-linecap="butt" stroke-linejoin="round" stroke="rgb(100%, 100%, 100%)" stroke-opacity="1" stroke-miterlimit="10" d="M 363.085938 352.507812 L 363.085938 42.855469 "/>
</g>
<path fill-rule="nonzero" fill="rgb(34.901961%, 34.901961%, 34.901961%)" fill-opacity="1" d="M 80.742188 338.433594 L 118.09375 338.433594 L 118.09375 56.929688 L 80.742188 56.929688 Z M 80.742188 338.433594 "/>
<path fill-rule="nonzero" fill="rgb(34.901961%, 34.901961%, 34.901961%)" fill-opacity="1" d="M 124.6875 338.433594 L 162.039062 338.433594 L 162.039062 328.199219 L 124.6875 328.199219 Z M 124.6875 338.433594 "/>
<path fill-rule="nonzero" fill="rgb(34.901961%, 34.901961%, 34.901961%)" fill-opacity="1" d="M 168.628906 338.433594 L 205.980469 338.433594 L 205.980469 337.859375 L 168.628906 337.859375 Z M 168.628906 338.433594 "/>
<path fill-rule="nonzero" fill="rgb(34.901961%, 34.901961%, 34.901961%)" fill-opacity="1" d="M 212.574219 338.433594 L 249.925781 338.433594 L 249.925781 338.40625 L 212.574219 338.40625 Z M 212.574219 338.433594 "/>
<path fill-rule="nonzero" fill="rgb(34.901961%, 34.901961%, 34.901961%)" fill-opacity="1" d="M 256.519531 338.433594 L 293.871094 338.433594 L 293.871094 338.429688 L 256.519531 338.429688 Z M 256.519531 338.433594 "/>
<path fill-rule="nonzero" fill="rgb(34.901961%, 34.901961%, 34.901961%)" fill-opacity="1" d="M 344.410156 338.433594 L 381.761719 338.433594 L 381.761719 338.429688 L 344.410156 338.429688 Z M 344.410156 338.433594 "/>
<path fill-rule="nonzero" fill="rgb(34.901961%, 34.901961%, 34.901961%)" fill-opacity="1" d="M 564.128906 338.433594 L 601.480469 338.433594 L 601.480469 338.429688 L 564.128906 338.429688 Z M 564.128906 338.433594 "/>
<g fill="rgb(30.196078%, 30.196078%, 30.196078%)" fill-opacity="1">
<use xlink:href="#glyph-0-0" x="44.878906" y="342.082031"/>
</g>
<g fill="rgb(30.196078%, 30.196078%, 30.196078%)" fill-opacity="1">
<use xlink:href="#glyph-0-1" x="25.300781" y="268.996094"/>
<use xlink:href="#glyph-0-2" x="30.194922" y="268.996094"/>
<use xlink:href="#glyph-0-0" x="35.089062" y="268.996094"/>
<use xlink:href="#glyph-0-0" x="39.983203" y="268.996094"/>
<use xlink:href="#glyph-0-0" x="44.877344" y="268.996094"/>
</g>
<g fill="rgb(30.196078%, 30.196078%, 30.196078%)" fill-opacity="1">
<use xlink:href="#glyph-0-2" x="25.300781" y="195.90625"/>
<use xlink:href="#glyph-0-0" x="30.194922" y="195.90625"/>
<use xlink:href="#glyph-0-0" x="35.089062" y="195.90625"/>
<use xlink:href="#glyph-0-0" x="39.983203" y="195.90625"/>
<use xlink:href="#glyph-0-0" x="44.877344" y="195.90625"/>
</g>
<g fill="rgb(30.196078%, 30.196078%, 30.196078%)" fill-opacity="1">
<use xlink:href="#glyph-0-3" x="25.300781" y="122.820312"/>
<use xlink:href="#glyph-0-2" x="30.194922" y="122.820312"/>
<use xlink:href="#glyph-0-0" x="35.089062" y="122.820312"/>
<use xlink:href="#glyph-0-0" x="39.983203" y="122.820312"/>
<use xlink:href="#glyph-0-0" x="44.877344" y="122.820312"/>
</g>
<g fill="rgb(30.196078%, 30.196078%, 30.196078%)" fill-opacity="1">
<use xlink:href="#glyph-0-4" x="20.410156" y="49.734375"/>
<use xlink:href="#glyph-0-0" x="25.304297" y="49.734375"/>
<use xlink:href="#glyph-0-0" x="30.198437" y="49.734375"/>
<use xlink:href="#glyph-0-0" x="35.092578" y="49.734375"/>
<use xlink:href="#glyph-0-0" x="39.986719" y="49.734375"/>
<use xlink:href="#glyph-0-0" x="44.880859" y="49.734375"/>
</g>
<path fill="none" stroke-width="1.066978" stroke-linecap="butt" stroke-linejoin="round" stroke="rgb(20%, 20%, 20%)" stroke-opacity="1" stroke-miterlimit="10" d="M 51.964844 338.433594 L 54.703125 338.433594 "/>
<path fill="none" stroke-width="1.066978" stroke-linecap="butt" stroke-linejoin="round" stroke="rgb(20%, 20%, 20%)" stroke-opacity="1" stroke-miterlimit="10" d="M 51.964844 265.347656 L 54.703125 265.347656 "/>
<path fill="none" stroke-width="1.066978" stroke-linecap="butt" stroke-linejoin="round" stroke="rgb(20%, 20%, 20%)" stroke-opacity="1" stroke-miterlimit="10" d="M 51.964844 192.257812 L 54.703125 192.257812 "/>
<path fill="none" stroke-width="1.066978" stroke-linecap="butt" stroke-linejoin="round" stroke="rgb(20%, 20%, 20%)" stroke-opacity="1" stroke-miterlimit="10" d="M 51.964844 119.171875 L 54.703125 119.171875 "/>
<path fill="none" stroke-width="1.066978" stroke-linecap="butt" stroke-linejoin="round" stroke="rgb(20%, 20%, 20%)" stroke-opacity="1" stroke-miterlimit="10" d="M 51.964844 46.082031 L 54.703125 46.082031 "/>
<path fill="none" stroke-width="1.066978" stroke-linecap="butt" stroke-linejoin="round" stroke="rgb(20%, 20%, 20%)" stroke-opacity="1" stroke-miterlimit="10" d="M 99.417969 355.25 L 99.417969 352.507812 "/>
<path fill="none" stroke-width="1.066978" stroke-linecap="butt" stroke-linejoin="round" stroke="rgb(20%, 20%, 20%)" stroke-opacity="1" stroke-miterlimit="10" d="M 143.363281 355.25 L 143.363281 352.507812 "/>
<path fill="none" stroke-width="1.066978" stroke-linecap="butt" stroke-linejoin="round" stroke="rgb(20%, 20%, 20%)" stroke-opacity="1" stroke-miterlimit="10" d="M 187.308594 355.25 L 187.308594 352.507812 "/>
<path fill="none" stroke-width="1.066978" stroke-linecap="butt" stroke-linejoin="round" stroke="rgb(20%, 20%, 20%)" stroke-opacity="1" stroke-miterlimit="10" d="M 231.25 355.25 L 231.25 352.507812 "/>
<path fill="none" stroke-width="1.066978" stroke-linecap="butt" stroke-linejoin="round" stroke="rgb(20%, 20%, 20%)" stroke-opacity="1" stroke-miterlimit="10" d="M 275.195312 355.25 L 275.195312 352.507812 "/>
<path fill="none" stroke-width="1.066978" stroke-linecap="butt" stroke-linejoin="round" stroke="rgb(20%, 20%, 20%)" stroke-opacity="1" stroke-miterlimit="10" d="M 319.140625 355.25 L 319.140625 352.507812 "/>
<path fill="none" stroke-width="1.066978" stroke-linecap="butt" stroke-linejoin="round" stroke="rgb(20%, 20%, 20%)" stroke-opacity="1" stroke-miterlimit="10" d="M 363.085938 355.25 L 363.085938 352.507812 "/>
<g fill="rgb(30.196078%, 30.196078%, 30.196078%)" fill-opacity="1">
<use xlink:href="#glyph-0-0" x="96.972656" y="364.738281"/>
</g>
<g fill="rgb(30.196078%, 30.196078%, 30.196078%)" fill-opacity="1">
<use xlink:href="#glyph-0-4" x="140.917969" y="364.738281"/>
</g>
<g fill="rgb(30.196078%, 30.196078%, 30.196078%)" fill-opacity="1">
<use xlink:href="#glyph-0-1" x="184.863281" y="364.738281"/>
</g>
<g fill="rgb(30.196078%, 30.196078%, 30.196078%)" fill-opacity="1">
<use xlink:href="#glyph-0-5" x="228.804688" y="364.738281"/>
</g>
<g fill="rgb(30.196078%, 30.196078%, 30.196078%)" fill-opacity="1">
<use xlink:href="#glyph-0-6" x="272.75" y="364.738281"/>
</g>
<g fill="rgb(30.196078%, 30.196078%, 30.196078%)" fill-opacity="1">
<use xlink:href="#glyph-0-2" x="316.695312" y="364.738281"/>
</g>
<g fill="rgb(30.196078%, 30.196078%, 30.196078%)" fill-opacity="1">
<use xlink:href="#glyph-0-7" x="360.640625" y="364.738281"/>
</g>
<g fill="rgb(0%, 0%, 0%)" fill-opacity="1">
<use xlink:href="#glyph-1-0" x="292.207031" y="379.207031"/>
<use xlink:href="#glyph-1-1" x="300.150879" y="379.207031"/>
<use xlink:href="#glyph-1-2" x="306.268555" y="379.207031"/>
<use xlink:href="#glyph-1-3" x="315.431641" y="379.207031"/>
<use xlink:href="#glyph-1-4" x="321.549316" y="379.207031"/>
<use xlink:href="#glyph-1-5" x="325.212402" y="379.207031"/>
<use xlink:href="#glyph-1-6" x="331.330078" y="379.207031"/>
<use xlink:href="#glyph-1-7" x="334.38623" y="379.207031"/>
<use xlink:href="#glyph-1-5" x="340.503906" y="379.207031"/>
<use xlink:href="#glyph-1-6" x="346.621582" y="379.207031"/>
<use xlink:href="#glyph-1-8" x="349.677734" y="379.207031"/>
<use xlink:href="#glyph-1-9" x="355.177734" y="379.207031"/>
<use xlink:href="#glyph-1-10" x="357.621582" y="379.207031"/>
<use xlink:href="#glyph-1-9" x="363.739258" y="379.207031"/>
<use xlink:href="#glyph-1-8" x="366.183105" y="379.207031"/>
<use xlink:href="#glyph-1-11" x="371.683105" y="379.207031"/>
<use xlink:href="#glyph-1-4" x="374.739258" y="379.207031"/>
<use xlink:href="#glyph-1-5" x="378.402344" y="379.207031"/>
<use xlink:href="#glyph-1-8" x="384.52002" y="379.207031"/>
</g>
<g fill="rgb(0%, 0%, 0%)" fill-opacity="1">
<use xlink:href="#glyph-2-0" x="14.351562" y="214.492188"/>
<use xlink:href="#glyph-2-1" x="14.351562" y="207.155273"/>
<use xlink:href="#glyph-2-1" x="14.351562" y="204.099121"/>
<use xlink:href="#glyph-2-2" x="14.351562" y="201.042969"/>
<use xlink:href="#glyph-2-3" x="14.351562" y="194.925293"/>
<use xlink:href="#glyph-2-4" x="14.351562" y="189.425293"/>
<use xlink:href="#glyph-2-5" x="14.351563" y="186.369141"/>
<use xlink:href="#glyph-2-1" x="14.351563" y="183.925293"/>
</g>
<g fill="rgb(0%, 0%, 0%)" fill-opacity="1">
<use xlink:href="#glyph-1-12" x="54.703125" y="34.058594"/>
<use xlink:href="#glyph-1-10" x="62.646973" y="34.058594"/>
<use xlink:href="#glyph-1-5" x="68.764648" y="34.058594"/>
<use xlink:href="#glyph-1-6" x="74.882324" y="34.058594"/>
<use xlink:href="#glyph-1-2" x="77.938477" y="34.058594"/>
<use xlink:href="#glyph-1-13" x="87.101562" y="34.058594"/>
<use xlink:href="#glyph-1-8" x="93.219238" y="34.058594"/>
<use xlink:href="#glyph-1-8" x="98.719238" y="34.058594"/>
<use xlink:href="#glyph-1-5" x="104.219238" y="34.058594"/>
<use xlink:href="#glyph-1-6" x="110.336914" y="34.058594"/>
<use xlink:href="#glyph-1-5" x="113.393066" y="34.058594"/>
<use xlink:href="#glyph-1-10" x="119.510742" y="34.058594"/>
<use xlink:href="#glyph-1-6" x="125.628418" y="34.058594"/>
<use xlink:href="#glyph-1-14" x="128.68457" y="34.058594"/>
<use xlink:href="#glyph-1-15" x="134.18457" y="34.058594"/>
<use xlink:href="#glyph-1-4" x="140.302246" y="34.058594"/>
<use xlink:href="#glyph-1-1" x="143.965332" y="34.058594"/>
<use xlink:href="#glyph-1-6" x="150.083008" y="34.058594"/>
<use xlink:href="#glyph-1-11" x="153.13916" y="34.058594"/>
<use xlink:href="#glyph-1-4" x="156.195312" y="34.058594"/>
<use xlink:href="#glyph-1-16" x="159.858398" y="34.058594"/>
<use xlink:href="#glyph-1-8" x="165.976074" y="34.058594"/>
<use xlink:href="#glyph-1-6" x="171.476074" y="34.058594"/>
<use xlink:href="#glyph-1-2" x="174.532227" y="34.058594"/>
<use xlink:href="#glyph-1-13" x="183.695312" y="34.058594"/>
<use xlink:href="#glyph-1-4" x="189.812988" y="34.058594"/>
<use xlink:href="#glyph-1-17" x="193.476074" y="34.058594"/>
<use xlink:href="#glyph-1-18" x="199.59375" y="34.058594"/>
<use xlink:href="#glyph-1-15" x="205.711426" y="34.058594"/>
<use xlink:href="#glyph-1-5" x="211.829102" y="34.058594"/>
<use xlink:href="#glyph-1-6" x="217.946777" y="34.058594"/>
<use xlink:href="#glyph-1-7" x="221.00293" y="34.058594"/>
<use xlink:href="#glyph-1-1" x="227.120605" y="34.058594"/>
<use xlink:href="#glyph-1-2" x="233.238281" y="34.058594"/>
<use xlink:href="#glyph-1-9" x="242.401367" y="34.058594"/>
<use xlink:href="#glyph-1-10" x="244.845215" y="34.058594"/>
<use xlink:href="#glyph-1-5" x="250.962891" y="34.058594"/>
<use xlink:href="#glyph-1-6" x="257.080566" y="34.058594"/>
<use xlink:href="#glyph-1-19" x="260.136719" y="34.058594"/>
<use xlink:href="#glyph-1-13" x="262.580566" y="34.058594"/>
<use xlink:href="#glyph-1-6" x="268.698242" y="34.058594"/>
<use xlink:href="#glyph-1-7" x="271.754395" y="34.058594"/>
<use xlink:href="#glyph-1-9" x="277.87207" y="34.058594"/>
<use xlink:href="#glyph-1-8" x="280.315918" y="34.058594"/>
<use xlink:href="#glyph-1-11" x="285.815918" y="34.058594"/>
<use xlink:href="#glyph-1-4" x="288.87207" y="34.058594"/>
<use xlink:href="#glyph-1-9" x="292.535156" y="34.058594"/>
<use xlink:href="#glyph-1-3" x="294.979004" y="34.058594"/>
<use xlink:href="#glyph-1-18" x="301.09668" y="34.058594"/>
<use xlink:href="#glyph-1-11" x="307.214355" y="34.058594"/>
<use xlink:href="#glyph-1-9" x="310.270508" y="34.058594"/>
<use xlink:href="#glyph-1-1" x="312.714355" y="34.058594"/>
<use xlink:href="#glyph-1-10" x="318.832031" y="34.058594"/>
<use xlink:href="#glyph-1-6" x="324.949707" y="34.058594"/>
<use xlink:href="#glyph-1-1" x="328.005859" y="34.058594"/>
<use xlink:href="#glyph-1-3" x="334.123535" y="34.058594"/>
<use xlink:href="#glyph-1-8" x="340.241211" y="34.058594"/>
<use xlink:href="#glyph-1-5" x="345.741211" y="34.058594"/>
<use xlink:href="#glyph-1-4" x="351.858887" y="34.058594"/>
<use xlink:href="#glyph-1-20" x="355.521973" y="34.058594"/>
<use xlink:href="#glyph-1-15" x="361.021973" y="34.058594"/>
<use xlink:href="#glyph-1-5" x="367.139648" y="34.058594"/>
</g>
<g fill="rgb(0%, 0%, 0%)" fill-opacity="1">
<use xlink:href="#glyph-3-0" x="54.703125" y="15.929688"/>
<use xlink:href="#glyph-3-1" x="64.235742" y="15.929688"/>
<use xlink:href="#glyph-3-2" x="67.168359" y="15.929688"/>
<use xlink:href="#glyph-3-3" x="73.768359" y="15.929688"/>
<use xlink:href="#glyph-3-4" x="77.435742" y="15.929688"/>
<use xlink:href="#glyph-3-1" x="81.831445" y="15.929688"/>
<use xlink:href="#glyph-3-5" x="84.764062" y="15.929688"/>
<use xlink:href="#glyph-3-6" x="92.105273" y="15.929688"/>
<use xlink:href="#glyph-3-3" x="99.446484" y="15.929688"/>
<use xlink:href="#glyph-3-1" x="103.113867" y="15.929688"/>
<use xlink:href="#glyph-3-7" x="106.046484" y="15.929688"/>
<use xlink:href="#glyph-3-8" x="113.387695" y="15.929688"/>
<use xlink:href="#glyph-3-9" x="120.728906" y="15.929688"/>
<use xlink:href="#glyph-3-10" x="124.396289" y="15.929688"/>
<use xlink:href="#glyph-3-6" x="131.7375" y="15.929688"/>
<use xlink:href="#glyph-3-9" x="139.078711" y="15.929688"/>
<use xlink:href="#glyph-3-8" x="142.746094" y="15.929688"/>
<use xlink:href="#glyph-3-7" x="150.087305" y="15.929688"/>
<use xlink:href="#glyph-3-11" x="157.428516" y="15.929688"/>
<use xlink:href="#glyph-3-5" x="168.424219" y="15.929688"/>
<use xlink:href="#glyph-3-4" x="175.76543" y="15.929688"/>
<use xlink:href="#glyph-3-12" x="180.161133" y="15.929688"/>
<use xlink:href="#glyph-3-9" x="187.502344" y="15.929688"/>
<use xlink:href="#glyph-3-10" x="191.169727" y="15.929688"/>
<use xlink:href="#glyph-3-12" x="198.510937" y="15.929688"/>
<use xlink:href="#glyph-3-9" x="205.852148" y="15.929688"/>
<use xlink:href="#glyph-3-2" x="209.519531" y="15.929688"/>
<use xlink:href="#glyph-3-1" x="216.119531" y="15.929688"/>
<use xlink:href="#glyph-3-8" x="219.052148" y="15.929688"/>
<use xlink:href="#glyph-3-1" x="226.393359" y="15.929688"/>
<use xlink:href="#glyph-3-2" x="229.325977" y="15.929688"/>
<use xlink:href="#glyph-3-3" x="235.925977" y="15.929688"/>
<use xlink:href="#glyph-3-4" x="239.593359" y="15.929688"/>
<use xlink:href="#glyph-3-12" x="243.989062" y="15.929688"/>
<use xlink:href="#glyph-3-2" x="251.330273" y="15.929688"/>
</g>
</svg>
